# xmcd
#
# Track frame offsets:
#	150
#	15754
#	31454
#	49634
#	68417
#	81221
#	101723
#	114854
#	132564
#	147360
#	156861
#
# Disc length: 2286 seconds
# Revision: 1
# Processed by: cddbd v1.5.2PL0 Copyright (c) Steve Scherf et al.
# Submitted via: jack 3.1.1
#
DISCID=8508ec0b
DTITLE=Gillian Welch - Boots No. 1- The Official Revival Bootleg, Disc 2
DYEAR=2016
DGENRE=Country
TTITLE0=Orphan Girl (Home Demo)
TTITLE1=I Don't Want To Go Downtown (Revival Outtake)
TTITLE2=455 Rocket (Revival Outtake)
TTITLE3=Barroom Girls (Live Radio)
TTITLE4=Wichita (Revival Outtake)
TTITLE5=One More Dollar (Alternate Version)
TTITLE6=Dry Town (Demo)
TTITLE7=Paper Wings (Alternate Mix)
TTITLE8=Riverboat Song (Revival Outtake)
TTITLE9=Old Time Religion (Revival Outtake)
TTITLE10=Acony Bell (Demo)
EXTD=
EXTT0=
EXTT1=
EXTT2=
EXTT3=
EXTT4=
EXTT5=
EXTT6=
EXTT7=
EXTT8=
EXTT9=
EXTT10=
PLAYORDER=
